<svg width="68" height="68" viewBox="0 0 68 68" fill="none" xmlns="http://www.w3.org/2000/svg">
<path d="M53.8674 19.9192C50.8587 15.6472 46.5562 12.4557 41.5951 10.8157C36.6339 9.17567 31.277 9.17409 26.3149 10.8112C21.3528 12.4483 17.0484 15.6373 14.0372 19.9075C11.0259 24.1778 9.46733 29.303 9.5914 34.5267C9.71547 39.7504 11.5157 44.7958 14.7262 48.9183C17.9368 53.0407 22.3877 56.0218 27.4219 57.4214C32.4562 58.8211 37.807 58.5652 42.6847 56.6915C47.5624 54.8178 51.7085 51.4256 54.511 47.0156L33.9482 33.9482L53.8674 19.9192Z" fill="white"/>
<path d="M39.7344 33.0999L60.9046 20.8316L60.5603 45.9439L39.7344 33.0999Z" fill="#F7006E"/>
</svg>
